<svg xmlns="http://www.w3.org/2000/svg" xmlns:xlink="http://www.w3.org/1999/xlink" x="0px" y="0px" viewBox="0 0 171.11 178.1" style="enable-background:new 0 0 171.11 178.1;" xml:space="preserve"><style type="text/css">	.st0{fill:url(#SVGID_1_);}	.st1{fill:#FFFFFF;}	.st2{fill:url(#SVGID_2_);}</style><g id="Layer_1"></g><g id="Layer_2"></g><g id="Layer_3">	<g>		<g>			<g>									<linearGradient id="SVGID_1_" gradientUnits="userSpaceOnUse" x1="104.059" y1="-281.3372" x2="248.1535" y2="-137.2427" gradientTransform="matrix(0 1 -1 0 -122.1185 -85.7907)">					<stop offset="0" style="stop-color:#64ACEC"></stop>					<stop offset="1" style="stop-color:#3886FF"></stop>				</linearGradient>				<path class="st0" d="M12.88,156.96V23.67c0-4.21,3.44-7.65,7.65-7.65h133.29c4.21,0,7.65,3.44,7.65,7.65v133.29     c0,4.21-3.44,7.65-7.65,7.65H20.53C16.32,164.61,12.88,161.17,12.88,156.96z"></path>			</g>		</g>		<path class="st1" d="M121.24,136.16H56.39c-2.77,0-5.02-2.25-5.02-5.02V55.6c0-2.77,2.25-5.02,5.02-5.02h64.85   c2.77,0,5.02,2.25,5.02,5.02v75.55C126.26,133.92,124.01,136.16,121.24,136.16z"></path>		<circle class="st1" cx="121.17" cy="41.22" r="5.82"></circle>		<linearGradient id="SVGID_2_" gradientUnits="userSpaceOnUse" x1="60.9918" y1="95.5817" x2="116.6387" y2="95.5817">			<stop offset="0" style="stop-color:#64ACEC"></stop>			<stop offset="1" style="stop-color:#3886FF"></stop>		</linearGradient>		<path class="st2" d="M114.22,127.21H63.41c-1.34,0-2.42-1.08-2.42-2.42V66.37c0-1.34,1.08-2.42,2.42-2.42h50.81   c1.34,0,2.42,1.08,2.42,2.42v58.42C116.64,126.13,115.56,127.21,114.22,127.21z"></path>	</g></g></svg>