<svg xmlns="http://www.w3.org/2000/svg" xmlns:xlink="http://www.w3.org/1999/xlink" x="0px" y="0px" viewBox="0 0 10000 10000" style="enable-background:new 0 0 10000 10000;" xml:space="preserve"><style type="text/css">	.st0{fill:url(#SVGID_1_);}	.st1{fill:#FFFFFF;}	.st2{fill:url(#SVGID_2_);}</style><g id="Layer_1"></g><g id="Layer_2"></g><g id="Layer_3">	<g>		<g>			<g>									<linearGradient id="SVGID_1_" gradientUnits="userSpaceOnUse" x1="181.6404" y1="-207.2518" x2="9999.459" y2="9610.5674" gradientTransform="matrix(0 1 -1 0 9703.2725 -89.2867)">					<stop offset="0" style="stop-color:#64ACEC"></stop>					<stop offset="1" style="stop-color:#3886FF"></stop>				</linearGradient>				<path class="st0" d="M90.45,9904.76v-9807c0-4.21,3.44-7.65,7.65-7.65h9807.03c4.21,0,7.65,3.44,7.65,7.65v9807     c0,4.21-3.44,7.65-7.65,7.65H98.1C93.89,9912.41,90.45,9908.97,90.45,9904.76z"></path>			</g>		</g>		<path class="st1" d="M7580.23,8031.82H2640.32c-2.77,0-5.02-2.25-5.02-5.02V2379.72c0-2.77,2.25-5.02,5.02-5.02h4939.92   c2.77,0,5.02,2.25,5.02,5.02V8026.8C7585.25,8029.57,7583,8031.82,7580.23,8031.82z"></path>		<circle class="st1" cx="7249.36" cy="1755.97" r="384.47"></circle>		<linearGradient id="SVGID_2_" gradientUnits="userSpaceOnUse" x1="3271.033" y1="5349.373" x2="6949.5181" y2="5349.373">			<stop offset="0" style="stop-color:#64ACEC"></stop>			<stop offset="0.2984" style="stop-color:#5CA5EF"></stop>			<stop offset="0.7623" style="stop-color:#4692F9"></stop>			<stop offset="1" style="stop-color:#3886FF"></stop>		</linearGradient>		<path class="st2" d="M6947.1,7440.12H3273.45c-1.34,0-2.42-1.08-2.42-2.42V3261.05c0-1.34,1.08-2.42,2.42-2.42H6947.1   c1.34,0,2.42,1.08,2.42,2.42V7437.7C6949.52,7439.04,6948.44,7440.12,6947.1,7440.12z"></path>	</g></g></svg>