<svg xmlns="http://www.w3.org/2000/svg" xmlns:xlink="http://www.w3.org/1999/xlink" x="0px" y="0px" viewBox="0 0 15690.35 15690.35" style="enable-background:new 0 0 15690.35 15690.35;" xml:space="preserve"><style type="text/css">	.st0{fill:url(#SVGID_1_);}	.st1{fill:#FFFFFF;}	.st2{fill:url(#SVGID_2_);}</style><g id="Layer_1"></g><g id="Layer_2"></g><g id="Layer_3">	<g>		<g>			<g>									<linearGradient id="SVGID_1_" gradientUnits="userSpaceOnUse" x1="911.2623" y1="108.0581" x2="15724.5029" y2="14921.2988" gradientTransform="matrix(0 1 -1 0 15393.626 -473.5986)">					<stop offset="0" style="stop-color:#64ACEC"></stop>					<stop offset="1" style="stop-color:#3886FF"></stop>				</linearGradient>				<path class="st0" d="M470.07,15245.49V443.08c0-4.21,3.44-7.65,7.65-7.65h14802.46c4.21,0,7.65,3.44,7.65,7.65v14802.41     c0,4.21-3.44,7.65-7.65,7.65H477.72C473.51,15253.14,470.07,15249.7,470.07,15245.49z"></path>			</g>		</g>		<path class="st1" d="M11771.55,12416.12H4314.19c-2.77,0-5.02-2.25-5.02-5.02V3886.93c0-2.77,2.25-5.02,5.02-5.02h7457.35   c2.77,0,5.02,2.25,5.02,5.02v8524.17C11776.56,12413.87,11774.32,12416.12,11771.55,12416.12z"></path>		<circle class="st1" cx="11269.85" cy="2948.5" r="580"></circle>		<linearGradient id="SVGID_2_" gradientUnits="userSpaceOnUse" x1="5268.228" y1="8369.4346" x2="10817.5127" y2="8369.4346">			<stop offset="0" style="stop-color:#64ACEC"></stop>			<stop offset="0.2984" style="stop-color:#5CA5EF"></stop>			<stop offset="0.7623" style="stop-color:#4692F9"></stop>			<stop offset="1" style="stop-color:#3886FF"></stop>		</linearGradient>		<path class="st2" d="M10815.09,11523.49H5270.65c-1.34,0-2.42-1.08-2.42-2.42V5217.8c0-1.34,1.08-2.42,2.42-2.42h5544.45   c1.34,0,2.42,1.08,2.42,2.42v6303.27C10817.51,11522.41,10816.43,11523.49,10815.09,11523.49z"></path>	</g></g></svg>