<svg xmlns="http://www.w3.org/2000/svg" xmlns:xlink="http://www.w3.org/1999/xlink" x="0px" y="0px" viewBox="0 0 8000 8000" style="enable-background:new 0 0 8000 8000;" xml:space="preserve"><style type="text/css">	.st0{fill:url(#SVGID_1_);}	.st1{fill:#FFFFFF;}	.st2{fill:url(#SVGID_2_);}</style><g id="Layer_1"></g><g id="Layer_2"></g><g id="Layer_3">	<g>		<g>			<g>									<linearGradient id="SVGID_1_" gradientUnits="userSpaceOnUse" x1="232.5875" y1="-156.3048" x2="7948.5122" y2="7559.6201" gradientTransform="matrix(0 1 -1 0 7703.2725 -89.2867)">					<stop offset="0" style="stop-color:#64ACEC"></stop>					<stop offset="1" style="stop-color:#3886FF"></stop>				</linearGradient>				<path class="st0" d="M141.4,7853.82V148.71c0-4.21,3.44-7.65,7.65-7.65h7705.13c4.21,0,7.65,3.44,7.65,7.65v7705.11     c0,4.21-3.44,7.65-7.65,7.65H149.05C144.84,7861.47,141.4,7858.02,141.4,7853.82z"></path>			</g>		</g>		<path class="st1" d="M6027.36,6383.3H2146.69c-2.77,0-5.02-2.25-5.02-5.02v-4436.5c0-2.77,2.25-5.02,5.02-5.02h3880.67   c2.77,0,5.02,2.25,5.02,5.02v4436.5C6032.37,6381.06,6030.13,6383.3,6027.36,6383.3z"></path>		<circle class="st1" cx="5768.36" cy="1450.43" r="302.2"></circle>		<linearGradient id="SVGID_2_" gradientUnits="userSpaceOnUse" x1="2641.3633" y1="4274.8804" x2="5532.6826" y2="4274.8804">			<stop offset="0" style="stop-color:#64ACEC"></stop>			<stop offset="0.2984" style="stop-color:#5CA5EF"></stop>			<stop offset="0.7623" style="stop-color:#4692F9"></stop>			<stop offset="1" style="stop-color:#3886FF"></stop>		</linearGradient>		<path class="st2" d="M5530.26,5918.22H2643.78c-1.34,0-2.42-1.08-2.42-2.42V2633.96c0-1.34,1.08-2.42,2.42-2.42h2886.48   c1.34,0,2.42,1.08,2.42,2.42V5915.8C5532.68,5917.14,5531.6,5918.22,5530.26,5918.22z"></path>	</g></g></svg>