<svg xmlns="http://www.w3.org/2000/svg" xmlns:xlink="http://www.w3.org/1999/xlink" x="0px" y="0px" viewBox="0 0 500 500" style="enable-background:new 0 0 500 500;" xml:space="preserve"><style type="text/css">	.st0{fill:url(#SVGID_1_);}	.st1{fill:#FFFFFF;}	.st2{fill:url(#SVGID_2_);}</style><g id="Layer_1"></g><g id="Layer_2"></g><g id="Layer_3">	<g>		<g>			<g>									<linearGradient id="SVGID_1_" gradientUnits="userSpaceOnUse" x1="105.3232" y1="-283.569" x2="575.7765" y2="186.8842" gradientTransform="matrix(0 1 -1 0 203.2726 -89.2867)">					<stop offset="0" style="stop-color:#64ACEC"></stop>					<stop offset="1" style="stop-color:#3886FF"></stop>				</linearGradient>				<path class="st0" d="M14.14,481.09V21.44c0-4.21,3.44-7.65,7.65-7.65h459.65c4.21,0,7.65,3.44,7.65,7.65v459.65     c0,4.21-3.44,7.65-7.65,7.65H21.79C17.58,488.74,14.14,485.29,14.14,481.09z"></path>			</g>		</g>		<path class="st1" d="M371.53,397.8H142.21c-2.77,0-5.02-2.25-5.02-5.02V129.27c0-2.77,2.25-5.02,5.02-5.02h229.32   c2.77,0,5.02,2.25,5.02,5.02v263.51C376.54,395.56,374.3,397.8,371.53,397.8z"></path>		<circle class="st1" cx="360.3" cy="94.34" r="18.59"></circle>		<linearGradient id="SVGID_2_" gradientUnits="userSpaceOnUse" x1="167.9346" y1="268.0956" x2="345.8038" y2="268.0956">			<stop offset="0" style="stop-color:#64ACEC"></stop>			<stop offset="1" style="stop-color:#3886FF"></stop>		</linearGradient>		<path class="st2" d="M343.39,369.19H170.35c-1.34,0-2.42-1.08-2.42-2.42V169.42c0-1.34,1.08-2.42,2.42-2.42h173.03   c1.34,0,2.42,1.08,2.42,2.42v197.35C345.8,368.11,344.72,369.19,343.39,369.19z"></path>	</g></g></svg>