<svg xmlns="http://www.w3.org/2000/svg" xmlns:xlink="http://www.w3.org/1999/xlink" x="0px" y="0px" viewBox="0 0 3000 3000" style="enable-background:new 0 0 3000 3000;" xml:space="preserve"><style type="text/css">	.st0{fill:url(#SVGID_1_);}	.st1{fill:#FFFFFF;}	.st2{fill:url(#SVGID_2_);}</style><g id="Layer_1"></g><g id="Layer_2"></g><g id="Layer_3">	<g>		<g>			<g>									<linearGradient id="SVGID_1_" gradientUnits="userSpaceOnUse" x1="186.4336" y1="-202.4586" x2="2994.666" y2="2605.7739" gradientTransform="matrix(0 1 -1 0 2703.2727 -89.2867)">					<stop offset="0" style="stop-color:#64ACEC"></stop>					<stop offset="1" style="stop-color:#3886FF"></stop>				</linearGradient>				<path class="st0" d="M95.25,2899.97V102.55c0-4.21,3.44-7.65,7.65-7.65h2797.43c4.21,0,7.65,3.44,7.65,7.65v2797.42     c0,4.21-3.44,7.65-7.65,7.65H102.9C98.69,2907.62,95.25,2904.18,95.25,2899.97z"></path>			</g>		</g>		<path class="st1" d="M2236.45,2369.1H829.01c-2.77,0-5.02-2.25-5.02-5.02V754.14c0-2.77,2.25-5.02,5.02-5.02h1407.44   c2.77,0,5.02,2.25,5.02,5.02v1609.94C2241.47,2366.85,2239.22,2369.1,2236.45,2369.1z"></path>		<circle class="st1" cx="2145.28" cy="571.94" r="110.1"></circle>		<linearGradient id="SVGID_2_" gradientUnits="userSpaceOnUse" x1="1006.044" y1="1600.9481" x2="2059.4182" y2="1600.9481">			<stop offset="0" style="stop-color:#64ACEC"></stop>			<stop offset="0.2984" style="stop-color:#5CA5EF"></stop>			<stop offset="0.7623" style="stop-color:#4692F9"></stop>			<stop offset="1" style="stop-color:#3886FF"></stop>		</linearGradient>		<path class="st2" d="M2057,2199.66H1008.46c-1.34,0-2.42-1.08-2.42-2.42V1004.66c0-1.34,1.08-2.42,2.42-2.42H2057   c1.34,0,2.42,1.08,2.42,2.42v1192.58C2059.42,2198.57,2058.34,2199.66,2057,2199.66z"></path>	</g></g></svg>