<svg xmlns="http://www.w3.org/2000/svg" xmlns:xlink="http://www.w3.org/1999/xlink" x="0px" y="0px" viewBox="0 0 12314.89 12314.89" style="enable-background:new 0 0 12314.89 12314.89;" xml:space="preserve"><style type="text/css">	.st0{fill:url(#SVGID_1_);}	.st1{fill:#FFFFFF;}	.st2{fill:url(#SVGID_2_);}</style><g id="Layer_1"></g><g id="Layer_2"></g><g id="Layer_3">	<g>		<g>			<g>									<linearGradient id="SVGID_1_" gradientUnits="userSpaceOnUse" x1="247.7171" y1="-141.1752" x2="12248.2725" y2="11859.3799" gradientTransform="matrix(0 1 -1 0 12018.1621 -89.2867)">					<stop offset="0" style="stop-color:#64ACEC"></stop>					<stop offset="1" style="stop-color:#3886FF"></stop>				</linearGradient>				<path class="st0" d="M156.53,12153.57V163.84c0-4.21,3.44-7.65,7.65-7.65h11989.77c4.21,0,7.65,3.44,7.65,7.65v11989.73     c0,4.21-3.44,7.65-7.65,7.65H164.17C159.97,12161.22,156.53,12157.78,156.53,12153.57z"></path>			</g>		</g>		<path class="st1" d="M9311.82,9862.72h-6039.9c-2.77,0-5.02-2.25-5.02-5.02V2953.49c0-2.77,2.25-5.02,5.02-5.02h6039.9   c2.77,0,5.02,2.25,5.02,5.02V9857.7C9316.83,9860.47,9314.59,9862.72,9311.82,9862.72z"></path>		<circle class="st1" cx="8906.3" cy="2192.23" r="469.91"></circle>		<linearGradient id="SVGID_2_" gradientUnits="userSpaceOnUse" x1="4043.9041" y1="6584.1753" x2="8539.8301" y2="6584.1753">			<stop offset="0" style="stop-color:#64ACEC"></stop>			<stop offset="0.2984" style="stop-color:#5CA5EF"></stop>			<stop offset="0.7623" style="stop-color:#4692F9"></stop>			<stop offset="1" style="stop-color:#3886FF"></stop>		</linearGradient>		<path class="st2" d="M8537.41,9139.53H4046.32c-1.34,0-2.42-1.08-2.42-2.42V4031.24c0-1.34,1.08-2.42,2.42-2.42h4491.09   c1.33,0,2.42,1.08,2.42,2.42v5105.87C8539.83,9138.45,8538.75,9139.53,8537.41,9139.53z"></path>	</g></g></svg>