<svg xmlns="http://www.w3.org/2000/svg" xmlns:xlink="http://www.w3.org/1999/xlink" x="0px" y="0px" viewBox="0 0 1000 1000" style="enable-background:new 0 0 1000 1000;" xml:space="preserve"><style type="text/css">	.st0{fill:url(#SVGID_1_);}	.st1{fill:#FFFFFF;}	.st2{fill:url(#SVGID_2_);}</style><g id="Layer_1"></g><g id="Layer_2"></g><g id="Layer_3">	<g>		<g>			<g>									<linearGradient id="SVGID_1_" gradientUnits="userSpaceOnUse" x1="136.3248" y1="-252.5674" x2="1044.7749" y2="655.8826" gradientTransform="matrix(0 1 -1 0 703.2726 -89.2867)">					<stop offset="0" style="stop-color:#64ACEC"></stop>					<stop offset="1" style="stop-color:#3886FF"></stop>				</linearGradient>				<path class="st0" d="M45.14,950.09V52.44c0-4.21,3.44-7.65,7.65-7.65h897.65c4.21,0,7.65,3.44,7.65,7.65v897.64     c0,4.21-3.44,7.65-7.65,7.65H52.79C48.58,957.73,45.14,954.29,45.14,950.09z"></path>			</g>		</g>		<path class="st1" d="M736.74,782.94H286.69c-2.77,0-5.02-2.25-5.02-5.02V262.15c0-2.77,2.25-5.02,5.02-5.02h450.05   c2.77,0,5.02,2.25,5.02,5.02v515.77C741.75,780.7,739.51,782.94,736.74,782.94z"></path>		<circle class="st1" cx="710.53" cy="199.63" r="35.73"></circle>		<linearGradient id="SVGID_2_" gradientUnits="userSpaceOnUse" x1="340.7645" y1="533.6185" x2="682.6647" y2="533.6185">			<stop offset="0" style="stop-color:#64ACEC"></stop>			<stop offset="0.2984" style="stop-color:#5CA5EF"></stop>			<stop offset="0.7623" style="stop-color:#4692F9"></stop>			<stop offset="1" style="stop-color:#3886FF"></stop>		</linearGradient>		<path class="st2" d="M680.25,727.94H343.18c-1.34,0-2.42-1.08-2.42-2.42V341.71c0-1.34,1.08-2.42,2.42-2.42h337.06   c1.34,0,2.42,1.08,2.42,2.42v383.82C682.66,726.86,681.58,727.94,680.25,727.94z"></path>	</g></g></svg>